<?xml version="1.0" encoding="UTF-8" standalone="no"?>
<svg
   width="405.005"
   zoomAndPan="magnify"
   viewBox="0 0 303.75375 105.32084"
   height="140.4278"
   preserveAspectRatio="xMidYMid"
   version="1.0"
   id="svg134"
   xmlns:xlink="http://www.w3.org/1999/xlink"
   xmlns="http://www.w3.org/2000/svg"
   xmlns:svg="http://www.w3.org/2000/svg">
  <defs
     id="defs9">
    <linearGradient
       id="linearGradient42">
      <stop
         style="stop-color:#e4e2dd;stop-opacity:0.5;"
         offset="0"
         id="stop40" />
      <stop
         style="stop-color:#e4e2dd;stop-opacity:0.69999999;"
         offset="0.47999999"
         id="stop41" />
      <stop
         style="stop-color:#e4e2dd;stop-opacity:0.5;"
         offset="1"
         id="stop42" />
    </linearGradient>
    <linearGradient
       id="linearGradient32">
      <stop
         style="stop-color:#e4e2dd;stop-opacity:0.5;"
         offset="0"
         id="stop32" />
      <stop
         style="stop-color:#e4e2dd;stop-opacity:1;"
         offset="0.47999999"
         id="stop34" />
      <stop
         style="stop-color:#e4e2dd;stop-opacity:0.5;"
         offset="1"
         id="stop33" />
    </linearGradient>
    <linearGradient
       xlink:href="#linearGradient32"
       id="linearGradient228"
       gradientUnits="userSpaceOnUse"
       x1="130.41487"
       y1="146.1312"
       x2="215.035"
       y2="146.1312" />
    <linearGradient
       xlink:href="#linearGradient42"
       id="linearGradient229"
       gradientUnits="userSpaceOnUse"
       x1="130.41487"
       y1="146.1312"
       x2="215.035"
       y2="146.1312" />
    <linearGradient
       xlink:href="#linearGradient32"
       id="linearGradient3"
       gradientUnits="userSpaceOnUse"
       x1="130.41487"
       y1="146.1312"
       x2="215.035"
       y2="146.1312" />
    <linearGradient
       xlink:href="#linearGradient42"
       id="linearGradient4"
       gradientUnits="userSpaceOnUse"
       x1="130.41487"
       y1="146.1312"
       x2="215.035"
       y2="146.1312" />
  </defs>
  <g
     id="g228"
     transform="translate(-607.31726,-400.35276)">
    <rect
       style="display:none;fill:#1a1a1a;fill-opacity:1;stroke:none;stroke-width:10.0639;stroke-linejoin:bevel"
       id="rect6"
       width="329.92801"
       height="134.61578"
       x="592.84937"
       y="386.30554" />
    <g
       transform="translate(604.72464,397.61062)"
       id="g225"
       style="display:inline">
      <g
         fill="#e4e2dd"
         fill-opacity="1"
         id="g216">
        <path
           d="m 21.84375,-25.125 c -2.1875,0 -4.070312,0.8125 -5.640625,2.4375 -1.574219,1.617188 -2.359375,3.558594 -2.359375,5.828125 0,2.3125 0.785156,4.28125 2.359375,5.90625 1.570313,1.617187 3.453125,2.421875 5.640625,2.421875 1.050781,0 2.046875,-0.128906 2.984375,-0.390625 0.945313,-0.257813 1.640625,-0.519531 2.078125,-0.78125 l 0.578125,-0.40625 3.9375,8.078125 c -0.304687,0.21875 -0.730469,0.496094 -1.28125,0.828125 -0.542969,0.324219 -1.789063,0.765625 -3.734375,1.328125 -1.949219,0.570312 -4.039062,0.859375 -6.265625,0.859375 -4.9375,0 -9.277344,-1.738281 -13.015625,-5.21875 -3.742188,-3.476563 -5.609375,-7.644531 -5.609375,-12.5 0,-4.894531 1.867187,-9.101563 5.609375,-12.625 3.738281,-3.519531 8.078125,-5.28125 13.015625,-5.28125 2.226563,0 4.28125,0.265625 6.15625,0.796875 1.882813,0.523438 3.222656,1.042969 4.015625,1.5625 l 1.109375,0.78125 -3.9375,7.953125 C 26.046875,-24.597656 24.164062,-25.125 21.84375,-25.125 Z m 0,0"
           id="path32"
           transform="translate(247.68845,59.163977)" />
      </g>
      <g
         fill="#e4e2dd"
         fill-opacity="1"
         id="g217">
        <path
           d="M 3.9375,-33.65625 V 0 h 11.609375 v -33.65625 z"
           id="path216"
           transform="translate(233.45668,59.163977)" />
      </g>
      <g
         fill="#e4e2dd"
         fill-opacity="1"
         id="g218">
        <path
           d="M 2.421875,8.265625 11.9375,3.609375 c 1.75,2.882813 4.789062,4.328125 9.125,4.328125 2.007812,0 3.878906,-0.648438 5.609375,-1.9375 1.726563,-1.292969 2.59375,-3.273438 2.59375,-5.9375 v -2.484375 c -2.0625,2.273437 -5.742187,3.40625 -11.03125,3.40625 -4.855469,0 -8.855469,-1.710937 -12,-5.140625 -3.148437,-3.4375 -4.71875,-7.648438 -4.71875,-12.640625 0,-4.988281 1.570313,-9.207031 4.71875,-12.65625 3.144531,-3.457031 7.144531,-5.1875 12,-5.1875 4.332031,0 7.941406,1.335937 10.828125,4 h 0.203125 V -33.65625 H 40.875 V 0.921875 c 0,5.46875 -1.820312,9.6875 -5.453125,12.65625 -3.625,2.976563 -8.414063,4.46875 -14.359375,4.46875 -9.625,0 -15.839844,-3.261719 -18.640625,-9.78125 z M 16.109375,-22.5 c -1.511719,1.492188 -2.265625,3.398438 -2.265625,5.71875 0,2.3125 0.71875,4.203125 2.15625,5.671875 1.445312,1.460937 3.351562,2.1875 5.71875,2.1875 2.269531,0 4.140625,-0.742187 5.609375,-2.234375 1.46875,-1.488281 2.203125,-3.367188 2.203125,-5.640625 0,-2.3125 -0.757812,-4.210937 -2.265625,-5.703125 -1.511719,-1.488281 -3.359375,-2.234375 -5.546875,-2.234375 -2.230469,0 -4.101562,0.746094 -5.609375,2.234375 z m 0,0"
           id="path217"
           transform="translate(194.23452,59.163977)" />
      </g>
      <g
         fill="#e4e2dd"
         fill-opacity="1"
         id="g219">
        <path
           d="m 7.125,-4 c -3.742188,-3.320312 -5.609375,-7.585938 -5.609375,-12.796875 0,-5.207031 1.941406,-9.484375 5.828125,-12.828125 3.894531,-3.34375 8.707031,-5.015625 14.4375,-5.015625 5.644531,0 10.398438,1.6875 14.265625,5.0625 3.875,3.367187 5.8125,7.632813 5.8125,12.796875 0,5.15625 -1.890625,9.40625 -5.671875,12.75 C 32.40625,-0.6875 27.601562,0.984375 21.78125,0.984375 15.75,0.984375 10.863281,-0.675781 7.125,-4 Z m 8.984375,-18.5 c -1.511719,1.492188 -2.265625,3.398438 -2.265625,5.71875 0,2.3125 0.71875,4.203125 2.15625,5.671875 1.445312,1.460937 3.351562,2.1875 5.71875,2.1875 2.269531,0 4.140625,-0.742187 5.609375,-2.234375 1.46875,-1.488281 2.203125,-3.367188 2.203125,-5.640625 0,-2.3125 -0.757812,-4.210937 -2.265625,-5.703125 -1.511719,-1.488281 -3.359375,-2.234375 -5.546875,-2.234375 -2.230469,0 -4.101562,0.746094 -5.609375,2.234375 z m 0,0"
           id="path218"
           transform="translate(156.45537,59.163977)" />
      </g>
      <g
         fill="#e4e2dd"
         fill-opacity="1"
         id="g220">
        <path
           d="M 3.9375,0 V -56.421875 H 15.546875 V 0 Z m 0,0"
           id="path219"
           transform="translate(142.55157,59.163977)" />
      </g>
      <g
         fill="#e4e2dd"
         fill-opacity="1"
         id="g221">
        <path
           d="M 29.453125,-33.65625 H 42.84375 L 16.40625,17.0625 H 3.015625 L 14.625,-5.25 -1.3125,-33.65625 h 13.390625 l 9.375,17.25 z m 0,0"
           id="path220"
           transform="translate(106.60899,59.163977)" />
      </g>
      <g
         fill="#e4e2dd"
         fill-opacity="1"
         id="g222">
        <path
           d="m 6.234375,-4.15625 c -3.148437,-3.4375 -4.71875,-7.648438 -4.71875,-12.640625 0,-4.988281 1.570313,-9.207031 4.71875,-12.65625 3.144531,-3.457031 7.144531,-5.1875 12,-5.1875 4.46875,0 8.144531,1.402344 11.03125,4.203125 v -3.21875 H 40.875 V 0 H 29.390625 v -3.8125 h -0.125 c -2.886719,3.199219 -6.5625,4.796875 -11.03125,4.796875 -4.855469,0 -8.855469,-1.710937 -12,-5.140625 z m 9.875,-18.34375 c -1.511719,1.492188 -2.265625,3.398438 -2.265625,5.71875 0,2.3125 0.71875,4.203125 2.15625,5.671875 1.445312,1.460937 3.351562,2.1875 5.71875,2.1875 2.269531,0 4.140625,-0.742187 5.609375,-2.234375 1.46875,-1.488281 2.203125,-3.367188 2.203125,-5.640625 0,-2.3125 -0.757812,-4.210937 -2.265625,-5.703125 -1.511719,-1.488281 -3.359375,-2.234375 -5.546875,-2.234375 -2.230469,0 -4.101562,0.746094 -5.609375,2.234375 z m 0,0"
           id="path221"
           transform="translate(67.386822,59.163977)" />
      </g>
      <g
         fill="#e4e2dd"
         fill-opacity="1"
         id="g223">
        <path
           d="m 3.9375,0 v -33.65625 h 11.609375 v 4.859375 H 15.6875 c 0.08203,-0.175781 0.222656,-0.394531 0.421875,-0.65625 0.195313,-0.269531 0.625,-0.734375 1.28125,-1.390625 0.65625,-0.65625 1.351563,-1.242188 2.09375,-1.765625 0.738281,-0.519531 1.695313,-0.988281 2.875,-1.40625 1.1875,-0.414063 2.394531,-0.625 3.625,-0.625 1.269531,0 2.515625,0.179687 3.734375,0.53125 1.226562,0.34375 2.125,0.695313 2.6875,1.046875 l 0.921875,0.515625 -4.859375,9.84375 c -1.4375,-1.21875 -3.449219,-1.828125 -6.03125,-1.828125 -1.398438,0 -2.601562,0.308594 -3.609375,0.921875 -1,0.605469 -1.710937,1.34375 -2.125,2.21875 -0.417969,0.875 -0.714844,1.621094 -0.890625,2.234375 -0.179688,0.617188 -0.265625,1.09375 -0.265625,1.4375 V 0 Z m 0,0"
           id="path222"
           transform="translate(40.299103,59.163977)" />
      </g>
      <g
         fill="#e4e2dd"
         fill-opacity="1"
         id="g224">
        <path
           d="M 2.421875,8.265625 11.9375,3.609375 c 1.75,2.882813 4.789062,4.328125 9.125,4.328125 2.007812,0 3.878906,-0.648438 5.609375,-1.9375 1.726563,-1.292969 2.59375,-3.273438 2.59375,-5.9375 v -2.484375 c -2.0625,2.273437 -5.742187,3.40625 -11.03125,3.40625 -4.855469,0 -8.855469,-1.710937 -12,-5.140625 -3.148437,-3.4375 -4.71875,-7.648438 -4.71875,-12.640625 0,-4.988281 1.570313,-9.207031 4.71875,-12.65625 3.144531,-3.457031 7.144531,-5.1875 12,-5.1875 4.332031,0 7.941406,1.335937 10.828125,4 h 0.203125 V -33.65625 H 40.875 V 0.921875 c 0,5.46875 -1.820312,9.6875 -5.453125,12.65625 -3.625,2.976563 -8.414063,4.46875 -14.359375,4.46875 -9.625,0 -15.839844,-3.261719 -18.640625,-9.78125 z M 16.109375,-22.5 c -1.511719,1.492188 -2.265625,3.398438 -2.265625,5.71875 0,2.3125 0.71875,4.203125 2.15625,5.671875 1.445312,1.460937 3.351562,2.1875 5.71875,2.1875 2.269531,0 4.140625,-0.742187 5.609375,-2.234375 1.46875,-1.488281 2.203125,-3.367188 2.203125,-5.640625 0,-2.3125 -0.757812,-4.210937 -2.265625,-5.703125 -1.511719,-1.488281 -3.359375,-2.234375 -5.546875,-2.234375 -2.230469,0 -4.101562,0.746094 -5.609375,2.234375 z m 0,0"
           id="path223"
           transform="translate(1.0769381,59.163977)" />
      </g>
    </g>
    <g
       clip-path="none"
       id="g226"
       transform="matrix(0.57628495,0,0,0.57628486,825.32421,352.43468)"
       style="display:inline;fill:#ffffff">
      <path
         id="path225"
         style="fill:#e4e2dd;fill-opacity:1;stroke:#e4e2dd;stroke-width:0.501054;stroke-linejoin:bevel;stroke-dasharray:none;stroke-opacity:1"
         d="m 41.812977,93.163273 -0.06609,0.11693 h 0.05338 z m -0.01271,0.11693 -0.970996,9.005857 3.040081,-0.35586 -6.957109,11.59094 H 49.672451 V 93.280203 Z m -4.888024,20.240937 h -0.01525 l -0.0051,0.0356 z m -0.01525,0 1.517499,-9.0872 -3.401028,0.71427 6.733424,-11.868007 H 29.431509 v 20.240937 z" />
    </g>
    <g
       id="g227"
       style="fill:none;stroke:url(#linearGradient4);stroke-width:0.988807;stroke-linecap:butt;stroke-linejoin:miter;stroke-dasharray:none;stroke-dashoffset:0;paint-order:fill markers stroke"
       transform="matrix(1.34545,0,0,1,454.2822,347.90966)">
      <path
         style="fill:none;stroke:url(#linearGradient3);stroke-width:0.988807;stroke-linecap:butt;stroke-linejoin:miter;stroke-dasharray:none;stroke-dashoffset:0;stroke-opacity:1;paint-order:fill markers stroke"
         d="m 130.41487,146.13119 h 84.62014"
         id="path226" />
    </g>
    <path
       style="fill:none;fill-opacity:1;stroke:#e4e2dd;stroke-width:1.1865;stroke-dasharray:none;stroke-opacity:1;paint-order:fill markers stroke"
       d="m 907.53438,483.04776 h 2.9433 v 22.03255 h -2.90508"
       id="path227" />
    <path
       style="fill:none;fill-opacity:1;stroke:#e4e2dd;stroke-width:1.1865;stroke-dasharray:none;stroke-opacity:1;paint-order:fill markers stroke"
       d="m 746.90568,483.0472 h -2.9433 v 22.03255 h 2.90508"
       id="path228" />
    <rect
       style="fill:#e4e2dd;fill-opacity:1;stroke:#e4e2dd;stroke-width:1.06217;stroke-linejoin:bevel;stroke-dasharray:none;stroke-opacity:1;paint-order:fill markers stroke"
       id="rect228"
       width="21.43783"
       height="21.437807"
       x="607.90277"
       y="483.35666" />
    <text
       xml:space="preserve"
       style="font-style:normal;font-variant:normal;font-weight:normal;font-stretch:normal;font-size:24.4857px;font-family:'League Spartan';-inkscape-font-specification:'League Spartan';letter-spacing:-1.59144px;word-spacing:0px;writing-mode:lr-tb;direction:ltr;fill:#e4e2dd;fill-opacity:1;stroke-width:1.22418"
       x="791.89648"
       y="502.84958"
       id="text228"><tspan
         id="tspan228"
         style="font-style:normal;font-variant:normal;font-weight:bold;font-stretch:normal;font-size:24.4857px;font-family:'Roboto Mono';-inkscape-font-specification:'Roboto Mono Bold';letter-spacing:-1.59144px;word-spacing:0px;fill:#e4e2dd;fill-opacity:1;stroke-width:1.22418"
         x="791.89648"
         y="502.84958">KNXSim</tspan></text>
  </g>
  <g
     id="g241"
     transform="translate(-607.31726,-400.35276)">
    <rect
       style="display:none;fill:#1a1a1a;fill-opacity:1;stroke:none;stroke-width:10.0639;stroke-linejoin:bevel"
       id="rect229"
       width="329.92801"
       height="134.61578"
       x="592.84937"
       y="386.30554" />
    <g
       transform="translate(604.72464,397.61062)"
       id="g238"
       style="display:inline">
      <g
         fill="#e4e2dd"
         fill-opacity="1"
         id="g229">
        <path
           d="m 21.84375,-25.125 c -2.1875,0 -4.070312,0.8125 -5.640625,2.4375 -1.574219,1.617188 -2.359375,3.558594 -2.359375,5.828125 0,2.3125 0.785156,4.28125 2.359375,5.90625 1.570313,1.617187 3.453125,2.421875 5.640625,2.421875 1.050781,0 2.046875,-0.128906 2.984375,-0.390625 0.945313,-0.257813 1.640625,-0.519531 2.078125,-0.78125 l 0.578125,-0.40625 3.9375,8.078125 c -0.304687,0.21875 -0.730469,0.496094 -1.28125,0.828125 -0.542969,0.324219 -1.789063,0.765625 -3.734375,1.328125 -1.949219,0.570312 -4.039062,0.859375 -6.265625,0.859375 -4.9375,0 -9.277344,-1.738281 -13.015625,-5.21875 -3.742188,-3.476563 -5.609375,-7.644531 -5.609375,-12.5 0,-4.894531 1.867187,-9.101563 5.609375,-12.625 3.738281,-3.519531 8.078125,-5.28125 13.015625,-5.28125 2.226563,0 4.28125,0.265625 6.15625,0.796875 1.882813,0.523438 3.222656,1.042969 4.015625,1.5625 l 1.109375,0.78125 -3.9375,7.953125 C 26.046875,-24.597656 24.164062,-25.125 21.84375,-25.125 Z m 0,0"
           id="path229"
           transform="translate(247.68845,59.163977)" />
      </g>
      <g
         fill="#e4e2dd"
         fill-opacity="1"
         id="g230">
        <path
           d="M 3.9375,-33.65625 V 0 h 11.609375 v -33.65625 z"
           id="path230"
           transform="translate(233.45668,59.163977)" />
      </g>
      <g
         fill="#e4e2dd"
         fill-opacity="1"
         id="g231">
        <path
           d="M 2.421875,8.265625 11.9375,3.609375 c 1.75,2.882813 4.789062,4.328125 9.125,4.328125 2.007812,0 3.878906,-0.648438 5.609375,-1.9375 1.726563,-1.292969 2.59375,-3.273438 2.59375,-5.9375 v -2.484375 c -2.0625,2.273437 -5.742187,3.40625 -11.03125,3.40625 -4.855469,0 -8.855469,-1.710937 -12,-5.140625 -3.148437,-3.4375 -4.71875,-7.648438 -4.71875,-12.640625 0,-4.988281 1.570313,-9.207031 4.71875,-12.65625 3.144531,-3.457031 7.144531,-5.1875 12,-5.1875 4.332031,0 7.941406,1.335937 10.828125,4 h 0.203125 V -33.65625 H 40.875 V 0.921875 c 0,5.46875 -1.820312,9.6875 -5.453125,12.65625 -3.625,2.976563 -8.414063,4.46875 -14.359375,4.46875 -9.625,0 -15.839844,-3.261719 -18.640625,-9.78125 z M 16.109375,-22.5 c -1.511719,1.492188 -2.265625,3.398438 -2.265625,5.71875 0,2.3125 0.71875,4.203125 2.15625,5.671875 1.445312,1.460937 3.351562,2.1875 5.71875,2.1875 2.269531,0 4.140625,-0.742187 5.609375,-2.234375 1.46875,-1.488281 2.203125,-3.367188 2.203125,-5.640625 0,-2.3125 -0.757812,-4.210937 -2.265625,-5.703125 -1.511719,-1.488281 -3.359375,-2.234375 -5.546875,-2.234375 -2.230469,0 -4.101562,0.746094 -5.609375,2.234375 z m 0,0"
           id="path231"
           transform="translate(194.23452,59.163977)" />
      </g>
      <g
         fill="#e4e2dd"
         fill-opacity="1"
         id="g232">
        <path
           d="m 7.125,-4 c -3.742188,-3.320312 -5.609375,-7.585938 -5.609375,-12.796875 0,-5.207031 1.941406,-9.484375 5.828125,-12.828125 3.894531,-3.34375 8.707031,-5.015625 14.4375,-5.015625 5.644531,0 10.398438,1.6875 14.265625,5.0625 3.875,3.367187 5.8125,7.632813 5.8125,12.796875 0,5.15625 -1.890625,9.40625 -5.671875,12.75 C 32.40625,-0.6875 27.601562,0.984375 21.78125,0.984375 15.75,0.984375 10.863281,-0.675781 7.125,-4 Z m 8.984375,-18.5 c -1.511719,1.492188 -2.265625,3.398438 -2.265625,5.71875 0,2.3125 0.71875,4.203125 2.15625,5.671875 1.445312,1.460937 3.351562,2.1875 5.71875,2.1875 2.269531,0 4.140625,-0.742187 5.609375,-2.234375 1.46875,-1.488281 2.203125,-3.367188 2.203125,-5.640625 0,-2.3125 -0.757812,-4.210937 -2.265625,-5.703125 -1.511719,-1.488281 -3.359375,-2.234375 -5.546875,-2.234375 -2.230469,0 -4.101562,0.746094 -5.609375,2.234375 z m 0,0"
           id="path232"
           transform="translate(156.45537,59.163977)" />
      </g>
      <g
         fill="#e4e2dd"
         fill-opacity="1"
         id="g233">
        <path
           d="M 3.9375,0 V -56.421875 H 15.546875 V 0 Z m 0,0"
           id="path233"
           transform="translate(142.55157,59.163977)" />
      </g>
      <g
         fill="#e4e2dd"
         fill-opacity="1"
         id="g234">
        <path
           d="M 29.453125,-33.65625 H 42.84375 L 16.40625,17.0625 H 3.015625 L 14.625,-5.25 -1.3125,-33.65625 h 13.390625 l 9.375,17.25 z m 0,0"
           id="path234"
           transform="translate(106.60899,59.163977)" />
      </g>
      <g
         fill="#e4e2dd"
         fill-opacity="1"
         id="g235">
        <path
           d="m 6.234375,-4.15625 c -3.148437,-3.4375 -4.71875,-7.648438 -4.71875,-12.640625 0,-4.988281 1.570313,-9.207031 4.71875,-12.65625 3.144531,-3.457031 7.144531,-5.1875 12,-5.1875 4.46875,0 8.144531,1.402344 11.03125,4.203125 v -3.21875 H 40.875 V 0 H 29.390625 v -3.8125 h -0.125 c -2.886719,3.199219 -6.5625,4.796875 -11.03125,4.796875 -4.855469,0 -8.855469,-1.710937 -12,-5.140625 z m 9.875,-18.34375 c -1.511719,1.492188 -2.265625,3.398438 -2.265625,5.71875 0,2.3125 0.71875,4.203125 2.15625,5.671875 1.445312,1.460937 3.351562,2.1875 5.71875,2.1875 2.269531,0 4.140625,-0.742187 5.609375,-2.234375 1.46875,-1.488281 2.203125,-3.367188 2.203125,-5.640625 0,-2.3125 -0.757812,-4.210937 -2.265625,-5.703125 -1.511719,-1.488281 -3.359375,-2.234375 -5.546875,-2.234375 -2.230469,0 -4.101562,0.746094 -5.609375,2.234375 z m 0,0"
           id="path235"
           transform="translate(67.386822,59.163977)" />
      </g>
      <g
         fill="#e4e2dd"
         fill-opacity="1"
         id="g236">
        <path
           d="m 3.9375,0 v -33.65625 h 11.609375 v 4.859375 H 15.6875 c 0.08203,-0.175781 0.222656,-0.394531 0.421875,-0.65625 0.195313,-0.269531 0.625,-0.734375 1.28125,-1.390625 0.65625,-0.65625 1.351563,-1.242188 2.09375,-1.765625 0.738281,-0.519531 1.695313,-0.988281 2.875,-1.40625 1.1875,-0.414063 2.394531,-0.625 3.625,-0.625 1.269531,0 2.515625,0.179687 3.734375,0.53125 1.226562,0.34375 2.125,0.695313 2.6875,1.046875 l 0.921875,0.515625 -4.859375,9.84375 c -1.4375,-1.21875 -3.449219,-1.828125 -6.03125,-1.828125 -1.398438,0 -2.601562,0.308594 -3.609375,0.921875 -1,0.605469 -1.710937,1.34375 -2.125,2.21875 -0.417969,0.875 -0.714844,1.621094 -0.890625,2.234375 -0.179688,0.617188 -0.265625,1.09375 -0.265625,1.4375 V 0 Z m 0,0"
           id="path236"
           transform="translate(40.299103,59.163977)" />
      </g>
      <g
         fill="#e4e2dd"
         fill-opacity="1"
         id="g237">
        <path
           d="M 2.421875,8.265625 11.9375,3.609375 c 1.75,2.882813 4.789062,4.328125 9.125,4.328125 2.007812,0 3.878906,-0.648438 5.609375,-1.9375 1.726563,-1.292969 2.59375,-3.273438 2.59375,-5.9375 v -2.484375 c -2.0625,2.273437 -5.742187,3.40625 -11.03125,3.40625 -4.855469,0 -8.855469,-1.710937 -12,-5.140625 -3.148437,-3.4375 -4.71875,-7.648438 -4.71875,-12.640625 0,-4.988281 1.570313,-9.207031 4.71875,-12.65625 3.144531,-3.457031 7.144531,-5.1875 12,-5.1875 4.332031,0 7.941406,1.335937 10.828125,4 h 0.203125 V -33.65625 H 40.875 V 0.921875 c 0,5.46875 -1.820312,9.6875 -5.453125,12.65625 -3.625,2.976563 -8.414063,4.46875 -14.359375,4.46875 -9.625,0 -15.839844,-3.261719 -18.640625,-9.78125 z M 16.109375,-22.5 c -1.511719,1.492188 -2.265625,3.398438 -2.265625,5.71875 0,2.3125 0.71875,4.203125 2.15625,5.671875 1.445312,1.460937 3.351562,2.1875 5.71875,2.1875 2.269531,0 4.140625,-0.742187 5.609375,-2.234375 1.46875,-1.488281 2.203125,-3.367188 2.203125,-5.640625 0,-2.3125 -0.757812,-4.210937 -2.265625,-5.703125 -1.511719,-1.488281 -3.359375,-2.234375 -5.546875,-2.234375 -2.230469,0 -4.101562,0.746094 -5.609375,2.234375 z m 0,0"
           id="path237"
           transform="translate(1.0769381,59.163977)" />
      </g>
    </g>
    <g
       clip-path="none"
       id="g239"
       transform="matrix(0.57628495,0,0,0.57628486,825.32421,352.43468)"
       style="display:inline;fill:#ffffff">
      <path
         id="path238"
         style="fill:#e4e2dd;fill-opacity:1;stroke:#e4e2dd;stroke-width:0.501054;stroke-linejoin:bevel;stroke-dasharray:none;stroke-opacity:1"
         d="m 41.812977,93.163273 -0.06609,0.11693 h 0.05338 z m -0.01271,0.11693 -0.970996,9.005857 3.040081,-0.35586 -6.957109,11.59094 H 49.672451 V 93.280203 Z m -4.888024,20.240937 h -0.01525 l -0.0051,0.0356 z m -0.01525,0 1.517499,-9.0872 -3.401028,0.71427 6.733424,-11.868007 H 29.431509 v 20.240937 z" />
    </g>
    <g
       id="g240"
       style="fill:none;stroke:url(#linearGradient229);stroke-width:0.988807;stroke-linecap:butt;stroke-linejoin:miter;stroke-dasharray:none;stroke-dashoffset:0;paint-order:fill markers stroke"
       transform="matrix(1.34545,0,0,1,454.2822,347.90966)">
      <path
         style="fill:none;stroke:url(#linearGradient228);stroke-width:0.988807;stroke-linecap:butt;stroke-linejoin:miter;stroke-dasharray:none;stroke-dashoffset:0;stroke-opacity:1;paint-order:fill markers stroke"
         d="m 130.41487,146.13119 h 84.62014"
         id="path239" />
    </g>
    <path
       style="fill:none;fill-opacity:1;stroke:#e4e2dd;stroke-width:1.1865;stroke-dasharray:none;stroke-opacity:1;paint-order:fill markers stroke"
       d="m 907.53438,483.04776 h 2.9433 v 22.03255 h -2.90508"
       id="path240" />
    <path
       style="fill:none;fill-opacity:1;stroke:#e4e2dd;stroke-width:1.1865;stroke-dasharray:none;stroke-opacity:1;paint-order:fill markers stroke"
       d="m 746.90568,483.0472 h -2.9433 v 22.03255 h 2.90508"
       id="path241" />
    <rect
       style="fill:#e4e2dd;fill-opacity:1;stroke:#e4e2dd;stroke-width:1.06217;stroke-linejoin:bevel;stroke-dasharray:none;stroke-opacity:1;paint-order:fill markers stroke"
       id="rect241"
       width="21.43783"
       height="21.437807"
       x="607.90277"
       y="483.35666" />
    <text
       xml:space="preserve"
       style="font-style:normal;font-variant:normal;font-weight:normal;font-stretch:normal;font-size:15px;font-family:'League Spartan';-inkscape-font-specification:'League Spartan';letter-spacing:-0.975px;word-spacing:0px;writing-mode:lr-tb;direction:ltr;fill:#e4e2dd;fill-opacity:1;stroke-width:0.75"
       x="811.08398"
       y="499.44397"
       id="text241"><tspan
         id="tspan241"
         style="font-style:normal;font-variant:normal;font-weight:bold;font-stretch:normal;font-size:15px;font-family:'Roboto Mono';-inkscape-font-specification:'Roboto Mono Bold';letter-spacing:-0.975px;word-spacing:0px;fill:#e4e2dd;fill-opacity:1;stroke-width:0.75"
         x="811.08398"
         y="499.44397" /></text>
  </g>
</svg>
